#!OML:ASF E:\id_vita\Project 1\Capture day 1\Session 1\Male1.ASF
:FULLY-SPECIFIED
:DEGREES
1171
root 30.0031 16.2959 -0.168628 907.64 79.103 907.659
lowerback -2.13851 1.766 0.120244
upperback 0.810296 2.38227 -1.21665
thorax 2.08566 1.20215 -1.2206
lowerneck -1.17963 8.58628 13.725
upperneck -1.31586 11.4542 0.937953
head 0.521911 5.74873 -1.82233
rclavicle -1.88721e-014 -4.77083e-015
rhumerus -19.8404 -10.2378 -82.143
rradius 26.5751
rwrist 3.93146
rhand -22.9659 36.3756
rfingers 7.12502
rthumb 3.47605 6.42422
lclavicle -1.88721e-014 -4.77083e-015
lhumerus -41.6864 10.252 72.8117
lradius 5.96283
lwrist 3.71213
lhand -13.7921 50.9939
lfingers 7.12502
lthumb 12.3296 80.6104
rfemur 8.56394 -0.240561 25.0777
rtibia 9.01755
rfoot -12.9677 -11.501
rtoes -3.22564
lfemur -27.942 -2.01427 -17.2786
ltibia 27.7371
lfoot -18.1373 2.43992
ltoes 6.09524
1172
root 30.091 16.2932 -0.183263 909.37 79.2741 909.448
lowerback -2.00452 1.74857 0.349905
upperback 0.807622 2.34874 -1.12021
thorax 2.01207 1.18707 -1.25598
lowerneck -1.91091 8.79571 13.2631
upperneck -0.644267 11.5995 1.52694
head 0.802552 5.86273 -1.49783
rclavicle -2.086e-014 -8.74653e-015
rhumerus -19.5997 -9.7217 -82.4557
rradius 26.4924
rwrist 3.71603
rhand -23.0985 36.542
rfingers 7.12502
rthumb 3.34796 6.58857
lclavicle -2.086e-014 -8.74653e-015
lhumerus -41.7303 10.5267 72.7867
lradius 5.828
lwrist 3.65731
lhand -13.6497 51.0926
lfingers 7.12502
lthumb 12.4669 80.7007
rfemur 9.76952 -0.168055 25.4422
rtibia 7.31911
rfoot -12.3543 -11.0723
rtoes -3.27386
lfemur -28.235 -2.74093 -16.6684
ltibia 27.2919
lfoot -18.1781 2.93242
ltoes 7.37761
1173
root 30.1792 16.2915 -0.196653 911.167 79.4738 911.29
lowerback -1.85667 1.78741 0.549471
upperback 0.789398 2.39123 -0.993208
thorax 1.91417 1.20904 -1.24112
lowerneck -1.81278 8.80663 13.2247
upperneck -0.834292 11.634 1.33799
head 0.73739 5.86728 -1.56062
rclavicle -1.77664e-014 1.74931e-014
rhumerus -19.5672 -9.37513 -82.643
rradius 26.621
rwrist 3.45795
rhand -23.0858 36.6959
rfingers 7.12502
rthumb 3.36023 6.74265
lclavicle -1.77664e-014 1.74931e-014
lhumerus -41.567 10.7578 72.9056
lradius 5.39382
lwrist 3.57706
lhand -13.6711 51.0361
lfingers 7.12502
lthumb 12.4462 80.6455
rfemur 11.0731 -0.0555219 25.7835
rtibia 5.36041
rfoot -11.4178 -10.5748
rtoes -3.46927
lfemur -28.4932 -3.32747 -16.088
ltibia 27.0423
lfoot -18.3555 3.04781
ltoes 8.11367
1174
root 30.2715 16.2843 -0.212302 911.536 79.7459 911.65
lowerback -1.81612 1.84134 0.51812
upperback 0.782802 2.46376 -0.983689
thorax 1.88482 1.24468 -1.21273
lowerneck -1.90552 8.8487 13.2339
upperneck -0.881973 11.6737 1.21163
head 0.749742 5.88388 -1.5974
rclavicle -3.68124e-014 1.19271e-014
rhumerus -19.5167 -9.14521 -82.8571
rradius 26.7059
rwrist 3.19022
rhand -22.9266 36.8459
rfingers 7.12502
rthumb 3.51398 6.89507
lclavicle -3.68124e-014 1.19271e-014
lhumerus -41.461 10.9169 72.9753
lradius 5.18852
lwrist 3.50319
lhand -13.7507 51.0257
lfingers 7.12502
lthumb 12.3694 80.6398
rfemur 12.4363 0.0910132 25.7766
rtibia 3.29128
rfoot -10.4773 -10.1307
rtoes -3.99422
lfemur -28.6974 -3.41659 -15.9845
ltibia 26.8699
lfoot -18.6324 2.52751
ltoes 8.99087
1175
root 30.3648 16.2778 -0.229836 911.093 79.9836 911.15
lowerback -1.91825 1.84072 0.356314
upperback 0.805512 2.46959 -1.05818
thorax 1.96205 1.24672 -1.19437
lowerneck -2.07244 8.9408 13.3129
upperneck -0.798113 11.7677 1.29613
head 0.809658 5.93777 -1.5685
rclavicle 5.80327e-014 -2.38542e-015
rhumerus -19.3373 -8.82278 -83.2063
rradius 26.6185
rwrist 2.99954
rhand -23.1137 36.9286
rfingers 7.12502
rthumb 3.33332 6.97488
lclavicle 5.80327e-014 -2.38542e-015
lhumerus -41.3936 11.104 72.9006
lradius 5.04242
lwrist 3.37602
lhand -13.7427 50.8825
lfingers 7.12502
lthumb 12.3772 80.4961
rfemur 13.6184 0.183891 25.5946
rtibia 1.56916
rfoot -10.0044 -9.7267
rtoes -3.49572
lfemur -28.8492 -3.06689 -16.1821
ltibia 26.685
lfoot -18.8538 1.3911
ltoes 9.68117
1176
root 30.4519 16.2725 -0.248954 911.235 80.137 911.225
lowerback -1.98546 1.81273 0.321013
upperback 0.786921 2.434 -1.09087
thorax 1.97978 1.22875 -1.20754
lowerneck -1.77667 8.91629 13.1684
upperneck -0.941671 11.7982 1.50344
head 0.690092 5.94636 -1.49735
rclavicle 7.52897e-015 -3.18055e-015
rhumerus -19.2802 -8.71158 -83.5251
rradius 26.5711
rwrist 2.88976
rhand -23.2226 37.0849
rfingers 7.12502
rthumb 3.22812 7.12963
lclavicle 7.52897e-015 -3.18055e-015
lhumerus -41.2629 11.3273 72.8256
lradius 4.66859
lwrist 3.36001
lhand -14.0731 50.7559
lfingers 7.12502
lthumb 12.0586 80.3885
rfemur 14.1339 0.214786 25.5411
rtibia 1.102
rfoot -10.0701 -9.54031
rtoes -2.9606
lfemur -28.9388 -2.79178 -16.2266
ltibia 26.5173
lfoot -19.0178 0.0668894
ltoes 10.185
1177
root 30.5367 16.2636 -0.271447 909.874 80.3273 909.751
lowerback -2.06602 1.80254 0.0973031
upperback 0.781671 2.43081 -1.21691
thorax 2.01574 1.22582 -1.20911
lowerneck -1.63402 9.13547 13.7556
upperneck -1.16553 12.1037 1.00786
head 0.685149 6.08453 -1.75083
rclavicle 3.88003e-014 -1.11319e-014
rhumerus -19.2841 -8.93259 -83.8009
rradius 26.6023
rwrist 2.99814
rhand -22.9898 37.2357
rfingers 7.12502
rthumb 3.45298 7.28394
lclavicle 3.88003e-014 -1.11319e-014
lhumerus -41.0264 11.5231 72.8283
lradius 4.34811
lwrist 3.67284
lhand -15.5846 51.206
lfingers 7.12502
lthumb 10.6009 80.9186
rfemur 14.9295 0.249067 25.1575
rtibia -9.54166e-015
rfoot -9.79565 -9.19607
rtoes -3.04444
lfemur -28.9922 -2.60393 -16.5564
ltibia 26.5114
lfoot -19.1818 -1.35025
ltoes 11.1762
1178
root 30.6343 16.2518 -0.286371 908.653 80.6951 908.47
lowerback -2.22454 1.85181 -0.280128
upperback 0.81147 2.51227 -1.29076
thorax 2.12432 1.26277 -1.06453
lowerneck -1.88697 9.12685 13.3983
upperneck -0.922158 12.0532 1.37543
head 0.753716 6.07522 -1.55808
rclavicle 2.11209e-016 -3.18055e-015
rhumerus -19.319 -9.13027 -84.0629
rradius 26.6826
rwrist 3.18387
rhand -22.788 37.1352
rfingers 7.12502
rthumb 3.6478 7.18669
lclavicle 2.11209e-016 -3.18055e-015
lhumerus -40.712 11.7272 72.8202
lradius 3.92632
lwrist 3.30106
lhand -15.8118 50.8186
lfingers 7.12502
lthumb 10.3817 80.5423
rfemur 15.2717 0.456462 24.8374
rtibia 2.8625e-014
rfoot -9.98304 -9.067
rtoes -3.91756
lfemur -28.8974 -2.46507 -16.7504
ltibia 26.6491
lfoot -19.2657 -2.63411
ltoes 12.5915
1179
root 30.726 16.237 -0.306618 913.383 81.0469 913.354
lowerback -2.04445 1.96513 0.421198
upperback 0.733528 2.6346 -1.12175
thorax 1.96903 1.33007 -1.28635
lowerneck -1.46621 9.12572 13.5646
upperneck -1.22198 12.1245 1.12036
head 0.618838 6.09106 -1.69391
rclavicle -5.57839e-015 0
rhumerus -19.5858 -9.35303 -84.2959
rradius 26.743
rwrist 3.44367
rhand -22.7609 36.97
rfingers 7.12502
rthumb 3.67398 7.02195
lclavicle -5.57839e-015 0
lhumerus -40.6912 11.8739 72.7553
lradius 3.74604
lwrist 3.02187
lhand -15.9262 50.4956
lfingers 7.12502
lthumb 10.2714 80.2248
rfemur 15.693 0.803906 25.5356
rtibia -9.54166e-015
rfoot -9.96329 -8.8525
rtoes -5.34775
lfemur -28.6356 -2.4953 -15.8102
ltibia 26.8753
lfoot -19.2368 -3.473
ltoes 13.7714
